<svg width="26" height="27" viewBox="0 0 26 27" fill="none" xmlns="http://www.w3.org/2000/svg">
<path d="M9.5489 23.25C10.4883 23.25 11.2499 22.4884 11.2499 21.549C11.2499 20.6096 10.4883 19.848 9.5489 19.848C8.60946 19.848 7.8479 20.6096 7.8479 21.549C7.8479 22.4884 8.60946 23.25 9.5489 23.25Z" stroke="white" stroke-width="1.5" stroke-linecap="round" stroke-linejoin="round"/>
<path d="M16.96 23.25C17.8995 23.25 18.661 22.4884 18.661 21.549C18.661 20.6096 17.8995 19.848 16.96 19.848C16.0206 19.848 15.259 20.6096 15.259 21.549C15.259 22.4884 16.0206 23.25 16.96 23.25Z" stroke="white" stroke-width="1.5" stroke-linecap="round" stroke-linejoin="round"/>
<path d="M5.606 8.055L7.616 14.419C7.925 15.397 8.079 15.886 8.376 16.248C8.636 16.568 8.975 16.815 9.358 16.968C9.793 17.141 10.305 17.141 11.331 17.141H15.186C16.212 17.141 16.724 17.141 17.158 16.968C17.542 16.815 17.88 16.568 18.141 16.248C18.437 15.886 18.591 15.397 18.901 14.419L19.31 13.123L19.55 12.357L19.881 11.307C19.9991 10.9325 20.0274 10.5354 19.9634 10.148C19.8995 9.76055 19.7452 9.39361 19.513 9.07691C19.2809 8.76021 18.9774 8.50266 18.6271 8.32511C18.2768 8.14757 17.8897 8.05503 17.497 8.055H5.606ZM5.606 8.055L5.595 8.018C5.55277 7.87656 5.50608 7.73649 5.455 7.598C5.25255 7.08554 4.90923 6.64082 4.46473 6.31523C4.02022 5.98963 3.49266 5.79645 2.943 5.758C2.84 5.75 2.727 5.75 2.5 5.75" stroke="white" stroke-width="1.5" stroke-linecap="round" stroke-linejoin="round"/>
<rect x="12" y="0.5" width="14" height="14" rx="7" fill="#FB0000"/>
<path d="M19.004 11.6207C18.4429 11.6184 17.9635 11.4704 17.5658 11.1768C17.1681 10.8833 16.8638 10.456 16.6531 9.89489C16.4424 9.33381 16.3371 8.65791 16.3371 7.86719C16.3371 7.07884 16.4424 6.4053 16.6531 5.84659C16.8662 5.28788 17.1716 4.86174 17.5693 4.56818C17.9694 4.27462 18.4477 4.12784 19.004 4.12784C19.5603 4.12784 20.0374 4.2758 20.4351 4.57173C20.8328 4.86529 21.137 5.29143 21.3477 5.85014C21.5608 6.40649 21.6673 7.07884 21.6673 7.86719C21.6673 8.66027 21.562 9.33736 21.3513 9.89844C21.1406 10.4571 20.8364 10.8845 20.4387 11.1804C20.0409 11.474 19.5627 11.6207 19.004 11.6207ZM19.004 10.6726C19.4964 10.6726 19.8811 10.4323 20.1581 9.9517C20.4375 9.47112 20.5771 8.77628 20.5771 7.86719C20.5771 7.26349 20.5132 6.75331 20.3854 6.33665C20.2599 5.91761 20.0788 5.60038 19.8421 5.38494C19.6077 5.16714 19.3283 5.05824 19.004 5.05824C18.5139 5.05824 18.1292 5.29972 17.8499 5.78267C17.5705 6.26562 17.4297 6.96046 17.4273 7.86719C17.4273 8.47325 17.49 8.9858 17.6155 9.40483C17.7433 9.8215 17.9244 10.1375 18.1588 10.353C18.3932 10.5661 18.6749 10.6726 19.004 10.6726Z" fill="white"/>
</svg>
