<svg width="61" height="61" viewBox="0 0 61 61" fill="none" xmlns="http://www.w3.org/2000/svg">
<path d="M29.6501 46.4561C30.3655 46.8348 31.2219 46.8348 31.9372 46.4561L43.3474 40.4151C44.1056 40.0137 44.3948 39.0737 43.9934 38.3155C43.592 37.5574 42.652 37.2681 41.8938 37.6695L31.9371 42.9404C31.2218 43.3191 30.3655 43.3191 29.6502 42.9404L19.6935 37.6695C18.9353 37.2681 17.9953 37.5574 17.5939 38.3155C17.1926 39.0737 17.4818 40.0137 18.2399 40.4151L29.6501 46.4561Z" fill="white"/>
<path d="M29.6501 38.5133C30.3655 38.892 31.2219 38.892 31.9372 38.5133L43.3474 32.4723C44.1056 32.0709 44.3948 31.1309 43.9934 30.3728C43.592 29.6146 42.652 29.3254 41.8938 29.7267L31.9371 34.9977C31.2218 35.3763 30.3655 35.3763 29.6502 34.9977L19.6935 29.7267C18.9353 29.3254 17.9953 29.6146 17.5939 30.3728C17.1926 31.1309 17.4818 32.0709 18.2399 32.4723L29.6501 38.5133Z" fill="white"/>
</svg>
