<svg width="27" height="27" viewBox="0 0 27 27" fill="none" xmlns="http://www.w3.org/2000/svg">
<path fill-rule="evenodd" clip-rule="evenodd" d="M5.95725 6.92399C4.29825 7.68199 3.08325 9.48599 3.08325 11.637C3.08325 13.834 3.98325 15.528 5.27125 16.98C6.33425 18.176 7.62025 19.168 8.87425 20.134C9.17292 20.364 9.46792 20.5933 9.75925 20.822C10.2853 21.237 10.7543 21.6 11.2073 21.865C11.6603 22.13 12.0233 22.25 12.3333 22.25C12.6433 22.25 13.0073 22.13 13.4593 21.865C13.9123 21.6 14.3813 21.237 14.9073 20.822C15.1986 20.5927 15.4936 20.3637 15.7923 20.135C17.0463 19.167 18.3323 18.176 19.3953 16.98C20.6843 15.528 21.5833 13.834 21.5833 11.637C21.5833 9.48699 20.3683 7.68199 18.7093 6.92399C17.0973 6.18699 14.9313 6.38199 12.8733 8.52099C12.8033 8.59358 12.7194 8.65132 12.6266 8.69075C12.5338 8.73019 12.4341 8.75051 12.3333 8.75051C12.2324 8.75051 12.1327 8.73019 12.0399 8.69075C11.9471 8.65132 11.8632 8.59358 11.7933 8.52099C9.73525 6.38199 7.56925 6.18699 5.95725 6.92399ZM12.3333 6.95999C10.0213 4.88999 7.43225 4.59999 5.33325 5.55899C3.11925 6.57399 1.58325 8.92599 1.58325 11.638C1.58325 14.303 2.69325 16.337 4.15025 17.977C5.31625 19.29 6.74325 20.389 8.00425 21.359C8.29092 21.579 8.56625 21.793 8.83025 22.001C9.34325 22.405 9.89325 22.835 10.4503 23.161C11.0073 23.487 11.6433 23.751 12.3333 23.751C13.0233 23.751 13.6593 23.486 14.2163 23.161C14.7743 22.835 15.3233 22.405 15.8363 22.001C16.1003 21.793 16.3756 21.579 16.6623 21.359C17.9223 20.389 19.3503 19.289 20.5163 17.977C21.9733 16.337 23.0833 14.303 23.0833 11.638C23.0833 8.92599 21.5483 6.57399 19.3333 5.56099C17.2343 4.60099 14.6453 4.89099 12.3333 6.95999Z" fill="white"/>
<rect x="12.3333" y="0.5" width="14" height="14" rx="7" fill="#FB0000"/>
<path d="M19.3372 11.6207C18.7762 11.6184 18.2968 11.4704 17.899 11.1768C17.5013 10.8833 17.1971 10.456 16.9864 9.89489C16.7757 9.33381 16.6703 8.65791 16.6703 7.86719C16.6703 7.07884 16.7757 6.4053 16.9864 5.84659C17.1995 5.28788 17.5049 4.86174 17.9026 4.56818C18.3027 4.27462 18.7809 4.12784 19.3372 4.12784C19.8936 4.12784 20.3706 4.2758 20.7684 4.57173C21.1661 4.86529 21.4703 5.29143 21.681 5.85014C21.8941 6.40649 22.0006 7.07884 22.0006 7.86719C22.0006 8.66027 21.8952 9.33736 21.6845 9.89844C21.4738 10.4571 21.1696 10.8845 20.7719 11.1804C20.3742 11.474 19.896 11.6207 19.3372 11.6207ZM19.3372 10.6726C19.8297 10.6726 20.2144 10.4323 20.4914 9.9517C20.7707 9.47112 20.9104 8.77628 20.9104 7.86719C20.9104 7.26349 20.8465 6.75331 20.7186 6.33665C20.5932 5.91761 20.4121 5.60038 20.1753 5.38494C19.9409 5.16714 19.6616 5.05824 19.3372 5.05824C18.8472 5.05824 18.4625 5.29972 18.1831 5.78267C17.9038 6.26562 17.7629 6.96046 17.7605 7.86719C17.7605 8.47325 17.8233 8.9858 17.9488 9.40483C18.0766 9.8215 18.2577 10.1375 18.4921 10.353C18.7265 10.5661 19.0082 10.6726 19.3372 10.6726Z" fill="white"/>
</svg>
